<?xml version="1.0" encoding="utf-8"?>
<!-- Generator: Adobe Illustrator 25.4.1, SVG Export Plug-In . SVG Version: 6.00 Build 0)  -->
<svg version="1.1" id="Layer_1" xmlns="http://www.w3.org/2000/svg" xmlns:xlink="http://www.w3.org/1999/xlink" x="0px" y="0px"
	 viewBox="0 0 5086 1126" style="enable-background:new 0 0 5086 1126;" xml:space="preserve">
<style type="text/css">
	.st0{fill:#009684;}
	.st1{fill:#009685;}
</style>
<g>
	<g>
		<g>
			<g>
				<g>
					<path class="st0" d="M736.32,37.35c-39.47-17.97-71.81,157.15-163.02,167.42c-90.78-13.49-116.88-189.66-156.97-173.1
						c-41.6,17.19-4.58,77.84,13.8,128.78c24.5,67.92,64.27,181.09,64.27,181.09s23.04,77.53,75.08,78.45
						c52.05,0.93,77.82-75.74,77.82-75.74s43.76-111.69,70.66-178.7C738.13,115.3,777.28,56,736.32,37.35z"/>
					<path class="st0" d="M643.1,74.25c-0.66,37.26-31.86,92.62-69.11,91.96c-37.26-0.66-66.46-57.1-65.8-94.36
						c0.66-37.26,31.4-66.92,68.66-66.26C614.1,6.26,643.77,37,643.1,74.25z"/>
				</g>
			</g>
		</g>
	</g>
	<g>
		<g>
			<g>
				<g>
					<path class="st0" d="M310.97,67.77c-40.62,15.2,60.34,161.9,3.11,233.65c-73.73,54.65-216.76-51.46-233.39-11.41
						c-17.26,41.57,51.81,58.28,100.82,81.31C246.86,402.02,355,453.93,355,453.93s71.11,38.53,108.56,2.38
						c37.46-36.15,1.47-108.58,1.47-108.58s-48.04-109.92-76.4-176.32C367.38,121.62,353.13,51.99,310.97,67.77z"/>
					<path class="st0" d="M271.15,159.78c25.88,26.81,42.97,88.02,16.15,113.89c-26.81,25.88-87.37,6.62-113.25-20.19
						c-25.87-26.81-25.12-69.53,1.7-95.4C202.56,132.21,245.28,132.97,271.15,159.78z"/>
				</g>
			</g>
		</g>
	</g>
	<g>
		<g>
			<g>
				<g>
					<path class="st0" d="M31.72,390.05c-17.97,39.47,157.15,71.81,167.42,163.02C185.64,643.85,9.48,669.95,26.04,710.03
						c17.19,41.6,77.85,4.58,128.78-13.79c67.92-24.51,181.09-64.27,181.09-64.27s77.53-23.04,78.45-75.08
						c0.93-52.05-75.74-77.82-75.74-77.82s-111.69-43.76-178.7-70.65C109.68,388.24,50.37,349.09,31.72,390.05z"/>
					<path class="st0" d="M68.63,483.27c37.26,0.66,92.62,31.85,91.96,69.11c-0.66,37.25-57.1,66.46-94.36,65.8
						c-37.26-0.66-66.92-31.4-66.26-68.66C0.63,512.27,31.37,482.61,68.63,483.27z"/>
				</g>
			</g>
		</g>
	</g>
	<g>
		<g>
			<g>
				<g>
					<path class="st0" d="M62.14,815.4c15.2,40.62,161.9-60.34,233.65-3.11c54.65,73.73-51.46,216.76-11.41,233.39
						c41.57,17.26,58.28-51.81,81.31-100.82c30.7-65.35,82.61-173.5,82.61-173.5s38.53-71.11,2.38-108.56
						c-36.15-37.46-108.58-1.47-108.58-1.47s-109.92,48.04-176.32,76.4C115.99,759,46.37,773.25,62.14,815.4z"/>
					<path class="st0" d="M154.16,855.22c26.81-25.88,88.02-42.97,113.89-16.15c25.87,26.81,6.62,87.37-20.19,113.25
						c-26.81,25.87-69.52,25.12-95.4-1.7C126.58,923.81,127.34,881.09,154.16,855.22z"/>
				</g>
			</g>
		</g>
	</g>
	<g>
		<g>
			<g>
				<g>
					<path class="st0" d="M384.42,1094.65c39.47,17.97,71.81-157.15,163.02-167.41c90.78,13.49,116.88,189.65,156.96,173.1
						c41.6-17.19,4.58-77.84-13.8-128.78c-24.5-67.92-64.26-181.09-64.26-181.09s-23.04-77.53-75.08-78.45
						c-52.05-0.93-77.82,75.74-77.82,75.74s-43.76,111.69-70.65,178.7C382.61,1016.7,343.46,1076,384.42,1094.65z"/>
					<path class="st0" d="M477.64,1057.75c0.66-37.26,31.85-92.62,69.11-91.96c37.25,0.66,66.46,57.1,65.8,94.36
						c-0.66,37.25-31.4,66.92-68.66,66.26C506.65,1125.74,476.98,1095.01,477.64,1057.75z"/>
				</g>
			</g>
		</g>
	</g>
	<g>
		<g>
			<g>
				<g>
					<path class="st0" d="M809.77,1064.23c40.62-15.2-60.34-161.9-3.11-233.65c73.73-54.65,216.75,51.46,233.39,11.41
						c17.26-41.57-51.81-58.28-100.82-81.31c-65.35-30.7-173.49-82.61-173.49-82.61s-71.11-38.53-108.57-2.38
						c-37.46,36.15-1.47,108.58-1.47,108.58s48.04,109.92,76.4,176.32C753.37,1010.38,767.62,1080,809.77,1064.23z"/>
					<path class="st0" d="M849.59,972.22c-25.88-26.81-42.97-88.02-16.15-113.89c26.81-25.87,87.37-6.62,113.25,20.19
						c25.88,26.81,25.12,69.52-1.69,95.4C918.18,999.79,875.47,999.03,849.59,972.22z"/>
				</g>
			</g>
		</g>
	</g>
	<g>
		<g>
			<g>
				<g>
					<path class="st0" d="M1089.02,741.95c17.97-39.47-157.15-71.81-167.41-163.02c13.49-90.78,189.65-116.88,173.1-156.97
						c-17.19-41.6-77.85-4.58-128.78,13.8c-67.92,24.5-181.09,64.26-181.09,64.26s-77.53,23.04-78.45,75.08
						c-0.93,52.05,75.74,77.82,75.74,77.82s111.69,43.76,178.7,70.65C1011.07,743.76,1070.37,782.91,1089.02,741.95z"/>
					<path class="st0" d="M1052.12,648.73c-37.26-0.66-92.62-31.85-91.96-69.11c0.66-37.25,57.1-66.46,94.36-65.8
						c37.26,0.66,66.92,31.4,66.26,68.66C1120.12,619.73,1089.38,649.39,1052.12,648.73z"/>
				</g>
			</g>
		</g>
	</g>
	<g>
		<g>
			<g>
				<g>
					<path class="st0" d="M1058.6,316.6c-15.2-40.62-161.9,60.34-233.65,3.11c-54.65-73.73,51.46-216.75,11.41-233.39
						c-41.57-17.26-58.28,51.81-81.31,100.82c-30.7,65.35-82.61,173.49-82.61,173.49s-38.54,71.11-2.38,108.56
						c36.15,37.46,108.58,1.47,108.58,1.47s109.92-48.04,176.32-76.4C1004.76,373,1074.38,358.75,1058.6,316.6z"/>
					<path class="st0" d="M966.59,276.78c-26.81,25.88-88.02,42.97-113.89,16.16c-25.87-26.81-6.62-87.37,20.19-113.25
						c26.81-25.88,69.52-25.12,95.4,1.7C994.16,208.19,993.4,250.91,966.59,276.78z"/>
				</g>
			</g>
		</g>
	</g>
</g>
<g>
	<g>
		<path class="st1" d="M1391.12,778.28V396.15h125.44l8.89,103.22h-9.57c6.15-25.98,15.15-46.88,27-62.72
			c11.85-15.83,25.69-27.34,41.53-34.52c15.83-7.18,32.52-10.77,50.07-10.77c27.11,0,48.99,8.89,65.62,26.66
			c16.63,17.77,30.19,48.54,40.67,92.29h-15.04c6.61-29.17,16.75-52.47,30.42-69.9s29.45-29.96,47.34-37.6
			c17.89-7.63,36.28-11.45,55.2-11.45c24.38,0,45.8,5.36,64.26,16.06c18.46,10.71,32.87,25.69,43.24,44.95
			c10.37,19.26,15.55,41.99,15.55,68.19v257.71h-137.4V555.43c0-16.63-4.22-29.68-12.65-39.14c-8.43-9.45-19.71-14.18-33.84-14.18
			c-9.35,0-17.49,2.17-24.44,6.49c-6.95,4.33-12.25,10.42-15.89,18.29c-3.65,7.86-5.47,17.38-5.47,28.54v222.85H1620.8V555.43
			c0-16.63-4.22-29.68-12.65-39.14c-8.43-9.45-19.71-14.18-33.84-14.18c-9.57,0-17.77,2.17-24.61,6.49
			c-6.84,4.33-12.08,10.42-15.72,18.29c-3.65,7.86-5.47,17.38-5.47,28.54v222.85H1391.12z"/>
		<path class="st1" d="M2234.67,785.11c-40.79,0-75.94-7.8-105.44-23.41c-29.51-15.61-52.12-38.11-67.85-67.5
			s-23.58-64.71-23.58-105.96c0-39.42,7.92-73.88,23.75-103.39c15.83-29.51,38.22-52.47,67.16-68.87
			c28.94-16.41,63.12-24.61,102.54-24.61c28.94,0,55.08,4.5,78.44,13.5c23.35,9,43.35,21.99,59.99,38.96
			c16.63,16.98,29.39,37.54,38.28,61.69c8.89,24.16,13.33,51.5,13.33,82.03V619h-341.11v-75.2h276.86l-64.26,15.72
			c0-15.49-2.28-28.54-6.84-39.14c-4.56-10.6-11.28-18.68-20.17-24.27c-8.89-5.58-19.94-8.37-33.15-8.37
			c-13.22,0-24.27,2.79-33.15,8.37c-8.89,5.59-15.61,13.67-20.17,24.27c-4.56,10.6-6.84,23.64-6.84,39.14v54.69
			c0,16.87,2.68,30.82,8.03,41.87c5.35,11.06,12.93,19.26,22.73,24.61c9.79,5.36,21.19,8.03,34.18,8.03
			c9.34,0,17.83-1.31,25.46-3.93c7.63-2.62,14.18-6.38,19.65-11.28c5.47-4.9,9.57-10.88,12.3-17.94l121,17.77
			c-6.38,22.79-17.66,42.55-33.84,59.3c-16.18,16.75-36.63,29.68-61.35,38.79C2295.91,780.55,2267.25,785.11,2234.67,785.11z
			 M2150.25,352.06c-16.64,0-30.82-5.64-42.55-16.92c-11.74-11.28-17.6-24.89-17.6-40.84c0-15.95,5.86-29.57,17.6-40.84
			c11.73-11.28,25.92-16.92,42.55-16.92c16.63,0,30.82,5.64,42.55,16.92c11.73,11.28,17.6,24.9,17.6,40.84
			c0,15.95-5.87,29.57-17.6,40.84C2181.06,346.42,2166.88,352.06,2150.25,352.06z M2308.16,352.06c-16.64,0-30.82-5.64-42.55-16.92
			c-11.74-11.28-17.6-24.89-17.6-40.84c0-15.95,5.86-29.57,17.6-40.84c11.73-11.28,25.92-16.92,42.55-16.92
			c16.63,0,30.82,5.64,42.55,16.92c11.73,11.28,17.6,24.9,17.6,40.84c0,15.95-5.87,29.57-17.6,40.84
			C2338.97,346.42,2324.79,352.06,2308.16,352.06z"/>
		<path class="st1" d="M2613.38,563.63v214.65h-137.4V396.15h128.86l2.73,97.75h-4.1c8.66-28.94,22.73-53.26,42.21-72.97
			c19.48-19.71,46.77-29.57,81.86-29.57c27.11,0,50.64,6.15,70.58,18.46c19.94,12.3,35.38,29.28,46.31,50.93
			c10.94,21.65,16.41,46.37,16.41,74.17v243.36h-137.4V563.63c0-18.91-4.79-33.78-14.36-44.6c-9.57-10.82-23.02-16.24-40.33-16.24
			c-11.17,0-20.91,2.45-29.22,7.35c-8.32,4.9-14.76,11.85-19.31,20.85C2615.66,539.99,2613.38,550.87,2613.38,563.63z"/>
		<path class="st1" d="M3067.29,783.06c-27.12,0-52.12-7.12-75.02-21.36c-22.9-14.24-41.19-35.83-54.86-64.77
			c-13.67-28.93-20.51-65.4-20.51-109.38c0-46.25,7.18-83.79,21.53-112.62c14.36-28.82,32.92-49.96,55.71-63.4
			c22.78-13.44,46.71-20.17,71.78-20.17c18.91,0,35.49,3.25,49.73,9.74c14.24,6.49,26.2,15.21,35.89,26.15
			c9.68,10.94,16.92,22.9,21.7,35.89h2.05V269h137.4v509.28h-136.04v-62.89h-3.42c-5.24,12.99-12.76,24.56-22.56,34.69
			c-9.8,10.14-21.65,18.17-35.55,24.1C3101.24,780.1,3085.29,783.06,3067.29,783.06z M3117.88,677.79c12.53,0,23.35-3.7,32.47-11.11
			c9.11-7.4,16.12-17.83,21.02-31.27c4.9-13.44,7.35-29.39,7.35-47.85c0-18.91-2.45-35.15-7.35-48.71
			c-4.9-13.55-11.91-23.98-21.02-31.27c-9.12-7.29-19.94-10.94-32.47-10.94c-12.53,0-23.24,3.65-32.13,10.94
			c-8.89,7.3-15.67,17.72-20.34,31.27c-4.67,13.56-7.01,29.79-7.01,48.71c0,18.69,2.33,34.81,7.01,48.36
			c4.67,13.56,11.45,23.93,20.34,31.1S3105.34,677.79,3117.88,677.79z"/>
		<path class="st1" d="M3382.43,778.28V396.15h137.4v382.13H3382.43z M3450.79,357.18c-18.69,0-34.64-6.15-47.85-18.46
			c-13.22-12.3-19.82-27.11-19.82-44.43c0-17.54,6.61-32.41,19.82-44.6c13.21-12.19,29.17-18.29,47.85-18.29
			c18.68,0,34.63,6.1,47.85,18.29c13.21,12.19,19.82,27.06,19.82,44.6c0,17.32-6.61,32.13-19.82,44.43
			C3485.42,351.03,3469.47,357.18,3450.79,357.18z"/>
		<path class="st1" d="M3726.96,563.63v214.65h-137.4V269h133.98v224.9h-6.49c8.66-28.94,22.73-53.26,42.21-72.97
			c19.48-19.71,46.77-29.57,81.86-29.57c27.11,0,50.64,6.15,70.58,18.46c19.94,12.3,35.38,29.28,46.31,50.93
			c10.94,21.65,16.41,46.37,16.41,74.17v243.36h-137.4V563.63c0-18.91-4.79-33.78-14.36-44.6c-9.57-10.82-23.02-16.24-40.33-16.24
			c-11.17,0-20.91,2.45-29.22,7.35c-8.32,4.9-14.76,11.85-19.31,20.85C3729.23,539.99,3726.96,550.87,3726.96,563.63z"/>
		<path class="st1" d="M4044.14,778.28V396.15h125.44l8.89,103.22h-9.57c6.15-25.98,15.15-46.88,27-62.72
			c11.85-15.83,25.69-27.34,41.53-34.52c15.83-7.18,32.52-10.77,50.07-10.77c27.11,0,48.99,8.89,65.62,26.66
			c16.63,17.77,30.19,48.54,40.67,92.29h-15.04c6.61-29.17,16.75-52.47,30.42-69.9s29.45-29.96,47.34-37.6
			c17.89-7.63,36.28-11.45,55.2-11.45c24.38,0,45.8,5.36,64.26,16.06c18.46,10.71,32.87,25.69,43.24,44.95
			c10.37,19.26,15.55,41.99,15.55,68.19v257.71h-137.4V555.43c0-16.63-4.22-29.68-12.65-39.14c-8.43-9.45-19.71-14.18-33.84-14.18
			c-9.35,0-17.49,2.17-24.44,6.49c-6.95,4.33-12.25,10.42-15.89,18.29c-3.65,7.86-5.47,17.38-5.47,28.54v222.85h-131.25V555.43
			c0-16.63-4.22-29.68-12.65-39.14c-8.43-9.45-19.71-14.18-33.84-14.18c-9.57,0-17.77,2.17-24.61,6.49
			c-6.84,4.33-12.08,10.42-15.72,18.29c-3.65,7.86-5.47,17.38-5.47,28.54v222.85H4044.14z"/>
		<path class="st1" d="M4888.72,785.11c-41.47,0-77.02-8.26-106.64-24.78c-29.62-16.52-52.24-39.53-67.85-69.04
			c-15.61-29.51-23.41-63.86-23.41-103.05c0-39.19,7.8-73.54,23.41-103.05c15.61-29.51,38.22-52.52,67.85-69.04
			c29.62-16.52,65.17-24.78,106.64-24.78c41.47,0,76.9,8.26,106.3,24.78c29.39,16.52,51.89,39.54,67.5,69.04
			c15.61,29.51,23.41,63.86,23.41,103.05c0,39.19-7.81,73.54-23.41,103.05c-15.61,29.51-38.11,52.52-67.5,69.04
			C4965.63,776.86,4930.19,785.11,4888.72,785.11z M4888.72,682.57c11.85,0,22.05-3.76,30.59-11.28s15.09-18.4,19.65-32.64
			c4.56-14.24,6.84-31.27,6.84-51.1c0-20.05-2.28-37.03-6.84-50.93c-4.56-13.9-11.11-24.49-19.65-31.79
			c-8.54-7.29-18.75-10.94-30.59-10.94c-12.08,0-22.45,3.65-31.1,10.94c-8.66,7.3-15.27,17.89-19.82,31.79
			c-4.56,13.9-6.84,30.88-6.84,50.93c0,19.82,2.28,36.86,6.84,51.1c4.56,14.24,11.16,25.12,19.82,32.64
			C4866.28,678.81,4876.64,682.57,4888.72,682.57z"/>
	</g>
</g>
<rect x="-1559.8" y="-2333.61" style="fill:none;" width="48.81" height="19.53"/>
<rect x="-2760.61" y="-957.07" style="fill:none;" width="68.34" height="29.29"/>
</svg>
